<mxfile host="app.diagrams.net" agent="Mozilla/5.0 (Windows NT 10.0; Win64; x64) AppleWebKit/537.36 (KHTML, like Gecko) Chrome/131.0.0.0 Safari/537.36" version="25.0.3">
  <diagram name="Page-1" id="Bg2UOFpxSTz-Ic-wKDgd">
    <mxGraphModel dx="1289" dy="1065" grid="1" gridSize="10" guides="1" tooltips="1" connect="1" arrows="1" fold="1" page="1" pageScale="1" pageWidth="850" pageHeight="1100" math="0" shadow="0">
      <root>
        <mxCell id="0" />
        <mxCell id="1" parent="0" />
        <mxCell id="HsVUvXYUnlX06c17Wyfa-1" value="" style="fontColor=#0066CC;verticalAlign=top;verticalLabelPosition=bottom;labelPosition=center;align=center;html=1;outlineConnect=0;fillColor=#CCCCCC;strokeColor=#6881B3;gradientColor=none;gradientDirection=north;strokeWidth=2;shape=mxgraph.networks.firewall;" vertex="1" parent="1">
          <mxGeometry x="370" y="450" width="100" height="100" as="geometry" />
        </mxCell>
        <mxCell id="HsVUvXYUnlX06c17Wyfa-21" style="edgeStyle=orthogonalEdgeStyle;rounded=0;orthogonalLoop=1;jettySize=auto;html=1;" edge="1" parent="1" source="HsVUvXYUnlX06c17Wyfa-2" target="HsVUvXYUnlX06c17Wyfa-3">
          <mxGeometry relative="1" as="geometry" />
        </mxCell>
        <mxCell id="HsVUvXYUnlX06c17Wyfa-2" value="" style="fontColor=#0066CC;verticalAlign=top;verticalLabelPosition=bottom;labelPosition=center;align=center;html=1;outlineConnect=0;fillColor=#CCCCCC;strokeColor=#6881B3;gradientColor=none;gradientDirection=north;strokeWidth=2;shape=mxgraph.networks.router;" vertex="1" parent="1">
          <mxGeometry x="370" y="320" width="100" height="30" as="geometry" />
        </mxCell>
        <mxCell id="HsVUvXYUnlX06c17Wyfa-3" value="" style="html=1;outlineConnect=0;fillColor=#CCCCCC;strokeColor=#6881B3;gradientColor=none;gradientDirection=north;strokeWidth=2;shape=mxgraph.networks.cloud;fontColor=#ffffff;" vertex="1" parent="1">
          <mxGeometry x="375" y="150" width="90" height="50" as="geometry" />
        </mxCell>
        <mxCell id="HsVUvXYUnlX06c17Wyfa-5" value="" style="fontColor=#0066CC;verticalAlign=top;verticalLabelPosition=bottom;labelPosition=center;align=center;html=1;outlineConnect=0;fillColor=#CCCCCC;strokeColor=#6881B3;gradientColor=none;gradientDirection=north;strokeWidth=2;shape=mxgraph.networks.switch;" vertex="1" parent="1">
          <mxGeometry x="180" y="740" width="100" height="30" as="geometry" />
        </mxCell>
        <mxCell id="HsVUvXYUnlX06c17Wyfa-18" style="edgeStyle=orthogonalEdgeStyle;rounded=0;orthogonalLoop=1;jettySize=auto;html=1;" edge="1" parent="1" source="HsVUvXYUnlX06c17Wyfa-6" target="HsVUvXYUnlX06c17Wyfa-5">
          <mxGeometry relative="1" as="geometry">
            <Array as="points">
              <mxPoint x="75" y="870" />
              <mxPoint x="160" y="870" />
              <mxPoint x="160" y="755" />
            </Array>
          </mxGeometry>
        </mxCell>
        <mxCell id="HsVUvXYUnlX06c17Wyfa-6" value="" style="fontColor=#0066CC;verticalAlign=top;verticalLabelPosition=bottom;labelPosition=center;align=center;html=1;outlineConnect=0;fillColor=#CCCCCC;strokeColor=#6881B3;gradientColor=none;gradientDirection=north;strokeWidth=2;shape=mxgraph.networks.server;" vertex="1" parent="1">
          <mxGeometry x="30" y="890" width="90" height="100" as="geometry" />
        </mxCell>
        <mxCell id="HsVUvXYUnlX06c17Wyfa-16" style="edgeStyle=orthogonalEdgeStyle;rounded=0;orthogonalLoop=1;jettySize=auto;html=1;" edge="1" parent="1" source="HsVUvXYUnlX06c17Wyfa-7" target="HsVUvXYUnlX06c17Wyfa-5">
          <mxGeometry relative="1" as="geometry">
            <mxPoint x="230" y="780" as="targetPoint" />
          </mxGeometry>
        </mxCell>
        <mxCell id="HsVUvXYUnlX06c17Wyfa-7" value="" style="fontColor=#0066CC;verticalAlign=top;verticalLabelPosition=bottom;labelPosition=center;align=center;html=1;outlineConnect=0;fillColor=#CCCCCC;strokeColor=#6881B3;gradientColor=none;gradientDirection=north;strokeWidth=2;shape=mxgraph.networks.pc;" vertex="1" parent="1">
          <mxGeometry x="160" y="900" width="100" height="70" as="geometry" />
        </mxCell>
        <mxCell id="HsVUvXYUnlX06c17Wyfa-17" style="edgeStyle=orthogonalEdgeStyle;rounded=0;orthogonalLoop=1;jettySize=auto;html=1;" edge="1" parent="1" target="HsVUvXYUnlX06c17Wyfa-5">
          <mxGeometry relative="1" as="geometry">
            <mxPoint x="250" y="780" as="targetPoint" />
            <mxPoint x="360" y="900" as="sourcePoint" />
            <Array as="points">
              <mxPoint x="360" y="870" />
              <mxPoint x="251" y="870" />
            </Array>
          </mxGeometry>
        </mxCell>
        <mxCell id="HsVUvXYUnlX06c17Wyfa-8" value="" style="fontColor=#0066CC;verticalAlign=top;verticalLabelPosition=bottom;labelPosition=center;align=center;html=1;outlineConnect=0;fillColor=#CCCCCC;strokeColor=#6881B3;gradientColor=none;gradientDirection=north;strokeWidth=2;shape=mxgraph.networks.pc;" vertex="1" parent="1">
          <mxGeometry x="290" y="900" width="100" height="70" as="geometry" />
        </mxCell>
        <mxCell id="HsVUvXYUnlX06c17Wyfa-13" style="edgeStyle=orthogonalEdgeStyle;rounded=0;orthogonalLoop=1;jettySize=auto;html=1;" edge="1" parent="1" source="HsVUvXYUnlX06c17Wyfa-9" target="HsVUvXYUnlX06c17Wyfa-11">
          <mxGeometry relative="1" as="geometry" />
        </mxCell>
        <mxCell id="HsVUvXYUnlX06c17Wyfa-9" value="" style="fontColor=#0066CC;verticalAlign=top;verticalLabelPosition=bottom;labelPosition=center;align=center;html=1;outlineConnect=0;fillColor=#CCCCCC;strokeColor=#6881B3;gradientColor=none;gradientDirection=north;strokeWidth=2;shape=mxgraph.networks.laptop;" vertex="1" parent="1">
          <mxGeometry x="550" y="900" width="100" height="55" as="geometry" />
        </mxCell>
        <mxCell id="HsVUvXYUnlX06c17Wyfa-14" style="edgeStyle=orthogonalEdgeStyle;rounded=0;orthogonalLoop=1;jettySize=auto;html=1;entryX=1;entryY=0.794;entryDx=0;entryDy=0;entryPerimeter=0;exitX=0.5;exitY=0;exitDx=0;exitDy=0;exitPerimeter=0;" edge="1" parent="1" source="HsVUvXYUnlX06c17Wyfa-10" target="HsVUvXYUnlX06c17Wyfa-11">
          <mxGeometry relative="1" as="geometry" />
        </mxCell>
        <mxCell id="HsVUvXYUnlX06c17Wyfa-10" value="" style="fontColor=#0066CC;verticalAlign=top;verticalLabelPosition=bottom;labelPosition=center;align=center;html=1;outlineConnect=0;fillColor=#CCCCCC;strokeColor=#6881B3;gradientColor=none;gradientDirection=north;strokeWidth=2;shape=mxgraph.networks.mobile;" vertex="1" parent="1">
          <mxGeometry x="720" y="877.5" width="50" height="100" as="geometry" />
        </mxCell>
        <mxCell id="HsVUvXYUnlX06c17Wyfa-11" value="" style="fontColor=#0066CC;verticalAlign=top;verticalLabelPosition=bottom;labelPosition=center;align=center;html=1;outlineConnect=0;fillColor=#CCCCCC;strokeColor=#6881B3;gradientColor=none;gradientDirection=north;strokeWidth=2;shape=mxgraph.networks.wireless_modem;" vertex="1" parent="1">
          <mxGeometry x="550" y="712.5" width="100" height="85" as="geometry" />
        </mxCell>
        <mxCell id="HsVUvXYUnlX06c17Wyfa-12" style="edgeStyle=orthogonalEdgeStyle;rounded=0;orthogonalLoop=1;jettySize=auto;html=1;entryX=1;entryY=0.5;entryDx=0;entryDy=0;entryPerimeter=0;" edge="1" parent="1" source="HsVUvXYUnlX06c17Wyfa-11" target="HsVUvXYUnlX06c17Wyfa-5">
          <mxGeometry relative="1" as="geometry" />
        </mxCell>
        <mxCell id="HsVUvXYUnlX06c17Wyfa-19" style="edgeStyle=orthogonalEdgeStyle;rounded=0;orthogonalLoop=1;jettySize=auto;html=1;entryX=0.5;entryY=1;entryDx=0;entryDy=0;entryPerimeter=0;" edge="1" parent="1" source="HsVUvXYUnlX06c17Wyfa-5" target="HsVUvXYUnlX06c17Wyfa-1">
          <mxGeometry relative="1" as="geometry">
            <Array as="points">
              <mxPoint x="230" y="700" />
              <mxPoint x="420" y="700" />
            </Array>
          </mxGeometry>
        </mxCell>
        <mxCell id="HsVUvXYUnlX06c17Wyfa-20" style="edgeStyle=orthogonalEdgeStyle;rounded=0;orthogonalLoop=1;jettySize=auto;html=1;entryX=0.5;entryY=1;entryDx=0;entryDy=0;entryPerimeter=0;" edge="1" parent="1" source="HsVUvXYUnlX06c17Wyfa-1" target="HsVUvXYUnlX06c17Wyfa-2">
          <mxGeometry relative="1" as="geometry" />
        </mxCell>
      </root>
    </mxGraphModel>
  </diagram>
</mxfile>
